<svg version="1.1" xmlns="http://www.w3.org/2000/svg" viewBox="0 0 588.2000007629395 469" width="588.2000007629395" height="469">
  <!-- svg-source:excalidraw -->
  
  <defs>
    <style class="style-fonts">
      @font-face {
        font-family: "Virgil";
        src: url("https://excalidraw.com/Virgil.woff2");
      }
      @font-face {
        font-family: "Cascadia";
        src: url("https://excalidraw.com/Cascadia.woff2");
      }
      @font-face {
        font-family: "Assistant";
        src: url("https://excalidraw.com/Assistant-Regular.woff2");
      }
    </style>
    
  </defs>
  <rect x="0" y="0" width="588.2000007629395" height="469" fill="#ffffff"></rect><g stroke-linecap="round" transform="translate(380 203) rotate(0 64.5 48)"><path d="M5.73 6.31 C5.73 6.31, 5.73 6.31, 5.73 6.31 M5.73 6.31 C5.73 6.31, 5.73 6.31, 5.73 6.31 M0.22 18.74 C3.66 14.1, 8.44 9.64, 14.66 2.14 M0.22 18.74 C2.69 15.46, 7.07 10.6, 14.66 2.14 M0.62 24.39 C8.94 15.53, 13 9.43, 20.3 1.75 M0.62 24.39 C8.9 15.17, 15.41 7.05, 20.3 1.75 M0.36 30.78 C6.5 22.43, 13.52 17.78, 25.94 1.35 M0.36 30.78 C8.21 22.57, 16.21 14, 25.94 1.35 M0.75 36.43 C12.69 21.84, 26.06 11.17, 30.93 1.71 M0.75 36.43 C9.74 27.46, 18.27 16.32, 30.93 1.71 M0.49 42.83 C12.16 29.83, 24.5 17.59, 36.57 1.32 M0.49 42.83 C13.19 28.71, 24.1 14.91, 36.57 1.32 M0.23 49.22 C16.08 33.43, 30.71 12.29, 41.56 1.68 M0.23 49.22 C9.58 38.65, 19.53 26.99, 41.56 1.68 M0.62 54.87 C11.24 43.2, 20.22 32.63, 47.2 1.28 M0.62 54.87 C12.9 42.25, 23.04 27.74, 47.2 1.28 M0.36 61.26 C19.96 38.59, 40.49 15.24, 52.19 1.64 M0.36 61.26 C20.62 40.23, 39.37 17.79, 52.19 1.64 M0.75 66.91 C22.71 41.24, 45.36 15.91, 57.83 1.25 M0.75 66.91 C13.95 52.88, 27.61 37.57, 57.83 1.25 M0.49 73.3 C16.47 57.26, 30.1 38.48, 62.82 1.61 M0.49 73.3 C25.47 45.21, 48.78 17.48, 62.82 1.61 M1.54 78.19 C18.71 60.53, 33.96 42.1, 68.46 1.21 M1.54 78.19 C15.86 61.78, 29.81 45.82, 68.46 1.21 M3.25 82.33 C21.35 63.57, 38.26 45.52, 73.45 1.57 M3.25 82.33 C26.9 54.23, 51.9 28.03, 73.45 1.57 M4.96 86.46 C21.59 69.76, 37.62 50.44, 79.09 1.18 M4.96 86.46 C33.59 54.57, 62.89 20.08, 79.09 1.18 M6.66 90.59 C25.65 70.04, 43.75 49.78, 84.08 1.54 M6.66 90.59 C26.4 69.24, 44.78 46.94, 84.08 1.54 M10.34 92.46 C29.07 69.11, 47.64 47.05, 89.07 1.9 M10.34 92.46 C34.38 64.47, 59.05 35.9, 89.07 1.9 M14.01 94.33 C32.03 76.82, 49.41 54.71, 94.71 1.5 M14.01 94.33 C34.43 71.86, 54.39 48.2, 94.71 1.5 M18.35 95.45 C44.27 68.02, 69.3 38.77, 99.7 1.86 M18.35 95.45 C50.56 60.3, 81.67 24.94, 99.7 1.86 M23.33 95.81 C44.6 74.84, 63.83 49.18, 106 0.71 M23.33 95.81 C46.73 69.08, 71.49 42.59, 106 0.71 M26.35 98.43 C48.88 74.51, 68.52 46.03, 110.33 1.83 M26.35 98.43 C56.64 63.61, 85.51 29.65, 110.33 1.83 M31.99 98.04 C58.91 67.23, 89.46 36.2, 115.97 1.43 M31.99 98.04 C50.42 78.86, 68.15 59.39, 115.97 1.43 M36.98 98.4 C54.09 74.5, 74.09 55.29, 118.99 4.06 M36.98 98.4 C57.18 73.88, 78.47 50.67, 118.99 4.06 M42.62 98 C56.26 81.19, 74.44 59.29, 122.66 5.93 M42.62 98 C63.7 72.13, 85.29 48.2, 122.66 5.93 M47.61 98.36 C64.78 76.77, 85.07 55.97, 125.68 8.55 M47.61 98.36 C65.32 78.06, 82.55 58.2, 125.68 8.55 M53.25 97.97 C75.12 68.9, 102.48 42.72, 128.04 11.93 M53.25 97.97 C68.75 77.85, 84.62 59.67, 128.04 11.93 M58.24 98.33 C79.92 72.38, 103.35 43.08, 129.75 16.07 M58.24 98.33 C81.38 72.78, 101.79 47.46, 129.75 16.07 M63.88 97.93 C78.32 81.45, 95.32 63.29, 130.8 20.95 M63.88 97.93 C80.52 80.62, 95.61 62.39, 130.8 20.95 M68.87 98.29 C84.58 80.24, 102.59 60.69, 131.85 25.84 M68.87 98.29 C86.46 78.85, 103.51 59.86, 131.85 25.84 M74.51 97.9 C88.72 78.89, 103.08 61.55, 131.59 32.24 M74.51 97.9 C94.46 73.58, 115.74 49.43, 131.59 32.24 M79.5 98.26 C92.01 82.66, 104.28 72.06, 131.33 38.64 M79.5 98.26 C98.46 79.01, 115 58.87, 131.33 38.64 M85.14 97.87 C102.65 78.98, 119.4 57.73, 131.72 44.28 M85.14 97.87 C99.17 84.29, 111.73 67.45, 131.72 44.28 M90.13 98.23 C105.42 81.93, 119.24 66.46, 131.46 50.68 M90.13 98.23 C101.5 83.2, 114.63 68.27, 131.46 50.68 M95.12 98.59 C108.33 85.09, 118.74 69.95, 131.2 57.08 M95.12 98.59 C107.41 84.16, 121.06 68.48, 131.2 57.08 M100.76 98.19 C110.6 84.85, 120.58 76.56, 131.6 62.72 M100.76 98.19 C106.35 90.76, 114.7 83.59, 131.6 62.72 M106.4 97.8 C115.13 88.41, 123.72 77.8, 131.33 69.12 M106.4 97.8 C117.13 85.77, 126.5 74.29, 131.33 69.12 M112.7 96.65 C117.04 90.82, 119.48 86.68, 129.11 77.78 M112.7 96.65 C116.02 92.38, 121.87 87.51, 129.11 77.78" stroke="#a5d8ff" stroke-width="0.5" fill="none"></path><path d="M24 0 C53.22 -1.08, 81.17 0.98, 105 0 M24 0 C56.45 -0.3, 88.7 0.55, 105 0 M105 0 C121.42 1.06, 128.83 8.54, 129 24 M105 0 C122.99 0.24, 127.18 8.64, 129 24 M129 24 C130.62 40.75, 130.07 57.6, 129 72 M129 24 C129.37 36.95, 128.18 48.52, 129 72 M129 72 C129.35 86.5, 120.31 96.37, 105 96 M129 72 C130.96 89.78, 121.5 93.9, 105 96 M105 96 C84.67 95.82, 62.97 95.66, 24 96 M105 96 C81.1 95.91, 56.95 94.82, 24 96 M24 96 C9.72 95.22, -1.29 88.06, 0 72 M24 96 C9.75 98.25, 1.18 88.46, 0 72 M0 72 C1.48 56.87, -2.16 39.19, 0 24 M0 72 C-0.19 60.94, -0.63 51.75, 0 24 M0 24 C0.62 6.94, 8.36 1.12, 24 0 M0 24 C-2.04 7.21, 6.06 -2.28, 24 0" stroke="#000000" stroke-width="1" fill="none"></path></g><g transform="translate(392.5999984741211 226) rotate(0 51.900001525878906 25)"><text x="51.900001525878906" y="17.52" font-family="Virgil, Segoe UI Emoji" font-size="20px" fill="#000000" text-anchor="middle" style="white-space: pre;" direction="ltr" dominant-baseline="alphabetic">api service</text><text x="51.900001525878906" y="42.519999999999996" font-family="Virgil, Segoe UI Emoji" font-size="20px" fill="#000000" text-anchor="middle" style="white-space: pre;" direction="ltr" dominant-baseline="alphabetic">Golang</text></g><g stroke-linecap="round" transform="translate(269 10) rotate(0 114.5 61)"><path d="M30.5 0 C83.04 -1.39, 135.02 -0.18, 198.5 0 M30.5 0 C84.14 -0.91, 138.68 -0.68, 198.5 0 M198.5 0 C219.65 0.76, 230.5 9.67, 229 30.5 M198.5 0 C220.71 -1.45, 228.54 11.5, 229 30.5 M229 30.5 C228.09 49.79, 230.54 73.21, 229 91.5 M229 30.5 C229.13 53.66, 228.61 77.6, 229 91.5 M229 91.5 C228.1 113.52, 218.63 121.19, 198.5 122 M229 91.5 C229.86 113.98, 220.1 124.22, 198.5 122 M198.5 122 C157.76 122.08, 116.72 121.62, 30.5 122 M198.5 122 C154.98 122.13, 112.27 122.83, 30.5 122 M30.5 122 C11.63 123.44, -1.88 110.47, 0 91.5 M30.5 122 C8.63 123.08, 0.37 113.9, 0 91.5 M0 91.5 C2.37 67.79, -0.9 46.97, 0 30.5 M0 91.5 C0.85 68.55, -0.21 47.27, 0 30.5 M0 30.5 C-0.33 8.18, 11.75 0.51, 30.5 0 M0 30.5 C-1.96 12.32, 10.63 -1.78, 30.5 0" stroke="#000000" stroke-width="1" fill="none"></path></g><g transform="translate(354.3166675567627 15) rotate(0 29.183332443237305 12.5)"><text x="29.183332443237305" y="17.52" font-family="Virgil, Segoe UI Emoji" font-size="20px" fill="#000000" text-anchor="middle" style="white-space: pre;" direction="ltr" dominant-baseline="alphabetic">Caddy</text></g><g stroke-linecap="round" transform="translate(277 49) rotate(0 107 36.5)"><path d="M4.86 4.22 C4.86 4.22, 4.86 4.22, 4.86 4.22 M4.86 4.22 C4.86 4.22, 4.86 4.22, 4.86 4.22 M0 15.9 C2.85 10.98, 9.59 5.62, 12.47 1.56 M0 15.9 C2.64 11.63, 5.4 8.4, 12.47 1.56 M0.4 21.55 C4.91 15.95, 10.82 6.39, 18.77 0.41 M0.4 21.55 C5.73 15.35, 10.43 8.64, 18.77 0.41 M0.14 27.94 C4.06 19.21, 14 15.34, 23.76 0.77 M0.14 27.94 C6.06 21.32, 13.15 13.31, 23.76 0.77 M0.53 33.59 C10.49 23.8, 19.64 12.65, 29.4 0.38 M0.53 33.59 C10.02 22.88, 17.24 13.12, 29.4 0.38 M0.27 39.99 C8.74 31.47, 12.71 23.92, 34.39 0.74 M0.27 39.99 C10.26 27.65, 21.16 16.09, 34.39 0.74 M0.01 46.38 C13.26 30.37, 28.25 12.56, 40.03 0.35 M0.01 46.38 C10.01 34.95, 18.68 23.23, 40.03 0.35 M0.4 52.03 C15.41 35.03, 28.13 18.4, 45.02 0.71 M0.4 52.03 C10.52 41.43, 20.37 28.32, 45.02 0.71 M0.14 58.42 C15.82 42.86, 27.16 27.6, 50.66 0.31 M0.14 58.42 C18.02 38.2, 35.5 17.5, 50.66 0.31 M1.85 62.56 C18.02 43.31, 31.59 25.64, 55.65 0.67 M1.85 62.56 C19.42 42.86, 36.66 20.63, 55.65 0.67 M3.56 66.69 C18.12 47.77, 33.04 31.02, 61.29 0.28 M3.56 66.69 C19.41 47.69, 36.59 29.31, 61.29 0.28 M6.57 69.32 C27.07 45.23, 46.79 20.41, 66.28 0.64 M6.57 69.32 C20.36 52.83, 33.36 36.63, 66.28 0.64 M9.59 71.94 C29.45 48.31, 47.31 26.56, 71.92 0.24 M9.59 71.94 C30.13 48.36, 50.27 24.88, 71.92 0.24 M13.92 73.05 C32.42 54.02, 47.46 30.75, 76.91 0.6 M13.92 73.05 C36.5 45.84, 58.32 20.04, 76.91 0.6 M18.91 73.41 C35.7 56.62, 47.88 40.69, 82.55 0.21 M18.91 73.41 C43.01 43.27, 69.13 15.64, 82.55 0.21 M23.9 73.77 C38.76 55.25, 56.53 35.21, 87.54 0.57 M23.9 73.77 C42 54.91, 57.16 34.15, 87.54 0.57 M29.54 73.38 C45.85 57.38, 57.51 39.15, 93.18 0.17 M29.54 73.38 C55.11 45.34, 80.26 15.02, 93.18 0.17 M34.53 73.74 C57.58 47.82, 78.23 23.82, 98.17 0.53 M34.53 73.74 C56.06 48.56, 76.22 26.34, 98.17 0.53 M40.17 73.35 C63.94 47.33, 83.83 23.41, 103.81 0.14 M40.17 73.35 C60.35 51.26, 78.57 28.53, 103.81 0.14 M45.16 73.71 C60.78 55.1, 78.4 37.78, 108.8 0.5 M45.16 73.71 C61.42 57.07, 74.65 41, 108.8 0.5 M50.8 73.31 C74.41 45.38, 101.81 16.49, 114.44 0.1 M50.8 73.31 C67.12 53.27, 84.37 34.77, 114.44 0.1 M55.79 73.67 C76.64 47.41, 98.9 22.84, 119.43 0.46 M55.79 73.67 C75.49 51.87, 94.04 28.03, 119.43 0.46 M61.43 73.28 C74.94 56.68, 86.2 44.67, 125.07 0.07 M61.43 73.28 C79.29 53.4, 95.71 33.12, 125.07 0.07 M66.42 73.64 C82.68 56.34, 95.25 41.27, 130.06 0.43 M66.42 73.64 C89.69 46.17, 113.92 19.71, 130.06 0.43 M72.06 73.24 C97.37 43.23, 120.64 17.09, 135.04 0.79 M72.06 73.24 C92.48 51.31, 112.77 26.48, 135.04 0.79 M77.05 73.6 C88.98 59.72, 103.37 42.95, 140.69 0.4 M77.05 73.6 C94.95 52.18, 113.15 31.33, 140.69 0.4 M82.69 73.21 C96.79 54.91, 110.31 41.28, 145.67 0.76 M82.69 73.21 C99.35 54.42, 115.7 35.77, 145.67 0.76 M87.68 73.57 C109.48 47.24, 133.58 20.96, 151.32 0.36 M87.68 73.57 C101.65 56.05, 116.91 40.2, 151.32 0.36 M93.32 73.17 C112.02 51.37, 132.15 29.7, 156.3 0.72 M93.32 73.17 C113.74 50.93, 133.09 27.96, 156.3 0.72 M98.31 73.53 C119.35 53.4, 136.94 30.44, 161.95 0.33 M98.31 73.53 C123.15 44.74, 149.19 16.42, 161.95 0.33 M103.95 73.14 C123.58 49.76, 140.42 29.63, 166.93 0.69 M103.95 73.14 C128.09 44.54, 152.09 16.71, 166.93 0.69 M108.94 73.5 C126 56.76, 138.24 39.3, 172.58 0.29 M108.94 73.5 C127.17 52.55, 145.53 30.7, 172.58 0.29 M113.93 73.86 C130.02 53.91, 148.89 34.12, 177.56 0.65 M113.93 73.86 C135.81 50.05, 155.61 26.17, 177.56 0.65 M119.57 73.46 C138.46 51.2, 156.79 30.78, 183.21 0.26 M119.57 73.46 C136.78 54.57, 153.56 34, 183.21 0.26 M124.56 73.82 C139.81 54.95, 159.19 33.22, 188.19 0.62 M124.56 73.82 C140.92 54.04, 158.05 35, 188.19 0.62 M130.2 73.43 C154.71 44.13, 179.43 16.92, 193.84 0.22 M130.2 73.43 C153.4 46.12, 177.94 19.46, 193.84 0.22 M135.19 73.79 C158.49 51.26, 178.74 23.8, 198.82 0.58 M135.19 73.79 C156.57 51.28, 176.35 26.74, 198.82 0.58 M140.83 73.4 C164.78 49.39, 185.54 20.72, 203.15 1.7 M140.83 73.4 C157.06 53.94, 175.94 33.39, 203.15 1.7 M145.82 73.76 C168.73 48.3, 188.67 22.77, 206.83 3.57 M145.82 73.76 C161.54 55.81, 175.67 38.96, 206.83 3.57 M151.46 73.36 C164.5 58.56, 177.19 43.93, 210.5 5.44 M151.46 73.36 C173.81 46.34, 198.82 20.81, 210.5 5.44 M156.45 73.72 C180.55 49.83, 199.06 22.25, 212.21 9.57 M156.45 73.72 C169.17 59.4, 180.76 46.21, 212.21 9.57 M162.09 73.33 C175.99 54.88, 194.7 37.41, 213.92 13.7 M162.09 73.33 C178.53 53.05, 196.72 33.39, 213.92 13.7 M167.08 73.69 C183.23 54.59, 198.25 39.43, 214.31 19.35 M167.08 73.69 C176.85 62.03, 187.84 49.2, 214.31 19.35 M172.72 73.29 C188.72 57.18, 201.38 37.35, 214.71 24.99 M172.72 73.29 C181.46 62.27, 190.09 51.18, 214.71 24.99 M177.71 73.65 C186.38 65.55, 192.59 56.5, 214.45 31.39 M177.71 73.65 C186.58 61.83, 196.47 52.32, 214.45 31.39 M183.35 73.26 C190.53 65.92, 198.33 56.24, 214.84 37.03 M183.35 73.26 C189.64 64.24, 197.34 55.58, 214.84 37.03 M188.34 73.62 C196.55 61.36, 209.24 50.73, 214.58 43.43 M188.34 73.62 C197.98 62.57, 208.7 50.41, 214.58 43.43 M193.98 73.22 C202.79 64.15, 210.38 56.07, 214.97 49.07 M193.98 73.22 C198.36 67.92, 204.44 61.42, 214.97 49.07 M199.62 72.83 C205.21 69.52, 207.9 64.7, 214.06 56.22 M199.62 72.83 C203.43 69.45, 205.99 66.52, 214.06 56.22" stroke="#ffec99" stroke-width="0.5" fill="none"></path><path d="M18.25 0 C74.92 0.69, 132.56 -2.95, 195.75 0 M18.25 0 C61.05 -1.25, 101.8 -1.7, 195.75 0 M195.75 0 C208.36 0.62, 212.94 6.44, 214 18.25 M195.75 0 C209.21 -2.04, 213.21 4.14, 214 18.25 M214 18.25 C215.85 26.88, 214.77 33.57, 214 54.75 M214 18.25 C212.85 26.76, 214.04 35.48, 214 54.75 M214 54.75 C214.89 66.75, 207.95 73.09, 195.75 73 M214 54.75 C216.2 65.87, 208.5 72.45, 195.75 73 M195.75 73 C132.24 70.76, 71.29 73.15, 18.25 73 M195.75 73 C157.65 74.49, 119.57 73.26, 18.25 73 M18.25 73 C6.05 74.72, 1.64 65.04, 0 54.75 M18.25 73 C8.09 71.47, -0.48 66.82, 0 54.75 M0 54.75 C-0.04 44.77, 0.83 38.42, 0 18.25 M0 54.75 C0.12 44.35, 0.41 33.66, 0 18.25 M0 18.25 C1.8 5.27, 5.77 0.03, 18.25 0 M0 18.25 C-1.27 7.96, 8.11 -0.31, 18.25 0" stroke="#000000" stroke-width="1" fill="none"></path></g><g transform="translate(292.43333435058594 60.5) rotate(0 91.56666564941406 25)"><text x="91.56666564941406" y="17.52" font-family="Virgil, Segoe UI Emoji" font-size="20px" fill="#000000" text-anchor="middle" style="white-space: pre;" direction="ltr" dominant-baseline="alphabetic">frontend</text><text x="91.56666564941406" y="42.519999999999996" font-family="Virgil, Segoe UI Emoji" font-size="20px" fill="#000000" text-anchor="middle" style="white-space: pre;" direction="ltr" dominant-baseline="alphabetic">HTML + vanilla JS</text></g><g stroke-linecap="round" transform="translate(352 373) rotate(0 76 37)"><path d="M4.92 4.28 C4.92 4.28, 4.92 4.28, 4.92 4.28 M4.92 4.28 C4.92 4.28, 4.92 4.28, 4.92 4.28 M0.73 15.21 C2.85 13.75, 4.34 8.61, 11.88 2.38 M0.73 15.21 C3.45 11.13, 6.45 8.82, 11.88 2.38 M1.12 20.85 C8.24 15.11, 11.86 5.92, 18.83 0.47 M1.12 20.85 C6.21 15.49, 10.01 9.35, 18.83 0.47 M0.86 27.25 C7.65 18.58, 16.3 9.14, 24.48 0.08 M0.86 27.25 C8.58 17.45, 17.12 8.92, 24.48 0.08 M1.25 32.89 C13.89 21.2, 22.36 8.95, 29.46 0.44 M1.25 32.89 C12.76 20.13, 24.38 8.14, 29.46 0.44 M0.99 39.29 C12.3 25.08, 24.7 13.97, 35.11 0.04 M0.99 39.29 C11.99 26.11, 23.66 12.46, 35.11 0.04 M0.73 45.69 C8.24 36.27, 15.33 28.17, 40.09 0.4 M0.73 45.69 C13.11 31.41, 25.92 17.88, 40.09 0.4 M1.13 51.33 C16.84 36.77, 27.17 19.33, 45.74 0.01 M1.13 51.33 C16.58 33.59, 31.37 15.97, 45.74 0.01 M0.86 57.73 C19.67 33.02, 39.3 12.01, 50.72 0.37 M0.86 57.73 C14.64 41.7, 29.22 25.35, 50.72 0.37 M2.57 61.86 C14.05 44.41, 30.73 29.33, 55.71 0.73 M2.57 61.86 C14.7 47.59, 27.25 33.89, 55.71 0.73 M2.97 67.5 C16.42 50.12, 28.82 36.97, 61.36 0.33 M2.97 67.5 C20.81 47.12, 38.65 25.7, 61.36 0.33 M5.98 70.13 C21.67 52.91, 39.56 32.88, 66.34 0.69 M5.98 70.13 C21.72 52.85, 36.24 35.79, 66.34 0.69 M9 72.75 C31.93 46.95, 53.77 20.36, 71.99 0.3 M9 72.75 C31.48 47.7, 52.66 23.2, 71.99 0.3 M13.33 73.87 C28.77 56.96, 43.87 39.6, 76.97 0.66 M13.33 73.87 C33.36 51.87, 54.07 27.22, 76.97 0.66 M18.32 74.23 C38.08 54.08, 54.21 32.09, 82.62 0.27 M18.32 74.23 C42.15 47.1, 64.1 21.06, 82.62 0.27 M23.96 73.83 C36.88 57.22, 54.54 39.71, 87.6 0.63 M23.96 73.83 C40.83 53.92, 58.7 34.38, 87.6 0.63 M28.95 74.19 C47.91 53.47, 62.94 34.95, 93.25 0.23 M28.95 74.19 C52.53 48.65, 76.82 20.28, 93.25 0.23 M34.59 73.8 C50.55 53.88, 68.63 31.56, 98.23 0.59 M34.59 73.8 C49.84 56.16, 67.22 38.21, 98.23 0.59 M39.58 74.16 C56.52 53.37, 75.08 32.81, 103.88 0.2 M39.58 74.16 C54.58 55.68, 69.89 38.82, 103.88 0.2 M45.22 73.76 C67.27 48.49, 87.14 24.65, 108.86 0.56 M45.22 73.76 C65.12 49.41, 85.5 26.12, 108.86 0.56 M50.21 74.12 C64.89 58.49, 78.3 39.73, 114.51 0.16 M50.21 74.12 C72.05 49.98, 91.62 24.77, 114.51 0.16 M55.85 73.73 C71.79 54.68, 83.96 40.77, 119.49 0.52 M55.85 73.73 C82.09 45.14, 106.36 17.25, 119.49 0.52 M60.84 74.09 C81.05 51.52, 101.66 30.79, 125.14 0.13 M60.84 74.09 C74.16 58.97, 88.2 41.2, 125.14 0.13 M66.48 73.69 C81.58 54.35, 99.76 34.81, 130.12 0.49 M66.48 73.69 C88.72 48.82, 111.81 22.57, 130.12 0.49 M71.47 74.05 C89.69 53.08, 104.1 33.95, 135.11 0.85 M71.47 74.05 C94.05 47.81, 117.15 22.75, 135.11 0.85 M77.11 73.66 C99.84 49.73, 121.36 25.4, 139.44 1.96 M77.11 73.66 C99.6 47.95, 121.7 23.48, 139.44 1.96 M82.1 74.02 C104.63 49.78, 128.66 23.68, 143.77 3.08 M82.1 74.02 C96.85 56.85, 109.81 40.99, 143.77 3.08 M87.09 74.38 C107.15 47.65, 129.52 23.78, 147.45 4.95 M87.09 74.38 C102.03 57.39, 117.5 40.03, 147.45 4.95 M92.73 73.99 C113.86 48.62, 134.22 25.27, 150.47 7.57 M92.73 73.99 C103.57 61.43, 114.76 48.48, 150.47 7.57 M97.72 74.35 C115.47 53.82, 137.85 28.79, 151.52 12.46 M97.72 74.35 C108.61 62.82, 120.2 48.67, 151.52 12.46 M103.36 73.95 C122.85 50.55, 143.14 29.46, 153.88 15.84 M103.36 73.95 C117.96 57.33, 130.33 43.14, 153.88 15.84 M108.35 74.31 C124.01 57.24, 141.63 36.46, 153.62 22.24 M108.35 74.31 C122.78 57.58, 137.45 42.19, 153.62 22.24 M113.99 73.92 C120.75 62.38, 132.13 55.65, 154.01 27.88 M113.99 73.92 C125.85 59.98, 139.66 44.52, 154.01 27.88 M118.98 74.28 C129.03 61.19, 142.38 47.93, 153.75 34.28 M118.98 74.28 C129.81 60.77, 142.58 48.02, 153.75 34.28 M124.62 73.88 C131.55 68.6, 135.66 58.78, 154.15 39.92 M124.62 73.88 C131.11 66.66, 138.73 58.46, 154.15 39.92 M129.61 74.24 C137.72 65.65, 143.72 58.17, 153.88 46.32 M129.61 74.24 C138.22 63.64, 146.79 54.21, 153.88 46.32 M134.6 74.6 C137.08 68.08, 144.66 64.86, 154.28 51.96 M134.6 74.6 C138.42 69.41, 143.62 64.78, 154.28 51.96 M140.9 73.45 C146 70.38, 148.07 63.04, 154.67 57.6 M140.9 73.45 C146.7 67.6, 150.01 61.42, 154.67 57.6" stroke="#ffc9c9" stroke-width="0.5" fill="none"></path><path d="M18.5 0 C61.04 1.64, 100.69 -1.3, 133.5 0 M18.5 0 C50.08 0.9, 83.78 0.53, 133.5 0 M133.5 0 C147.08 1.1, 150.77 7.35, 152 18.5 M133.5 0 C145.38 -1.14, 151.46 5.14, 152 18.5 M152 18.5 C151.37 31.85, 153.53 46.14, 152 55.5 M152 18.5 C152.13 26.12, 152.17 35.12, 152 55.5 M152 55.5 C152.32 65.99, 144.12 72.52, 133.5 74 M152 55.5 C153.93 69.09, 147.98 72.92, 133.5 74 M133.5 74 C87.06 74.55, 42.08 74.35, 18.5 74 M133.5 74 C104.16 73.67, 75.48 73.45, 18.5 74 M18.5 74 C7.5 72.25, -0.04 69.1, 0 55.5 M18.5 74 C6.8 74.67, -0.65 69.81, 0 55.5 M0 55.5 C-0.46 47.84, 0.63 38.23, 0 18.5 M0 55.5 C0.87 42.16, 0.31 30.87, 0 18.5 M0 18.5 C-1.69 7.85, 5.18 0.5, 18.5 0 M0 18.5 C1.32 8.36, 7.63 1.68, 18.5 0" stroke="#000000" stroke-width="1" fill="none"></path></g><g transform="translate(364.3583335876465 385) rotate(0 63.641666412353516 25)"><text x="63.641666412353516" y="17.52" font-family="Virgil, Segoe UI Emoji" font-size="20px" fill="#000000" text-anchor="middle" style="white-space: pre;" direction="ltr" dominant-baseline="alphabetic">active points</text><text x="63.641666412353516" y="42.519999999999996" font-family="Virgil, Segoe UI Emoji" font-size="20px" fill="#000000" text-anchor="middle" style="white-space: pre;" direction="ltr" dominant-baseline="alphabetic">Redis</text></g><g stroke-linecap="round" transform="translate(93 370) rotate(0 74 44.5)"><path d="M5.27 5.9 C5.27 5.9, 5.27 5.9, 5.27 5.9 M5.27 5.9 C5.27 5.9, 5.27 5.9, 5.27 5.9 M0.41 17.58 C5.34 13.56, 8.7 9.24, 14.19 1.73 M0.41 17.58 C4.84 13.64, 7.51 8.96, 14.19 1.73 M0.81 23.23 C7.92 14.07, 12.8 8.96, 20.49 0.59 M0.81 23.23 C5.25 18.49, 7.65 14.22, 20.49 0.59 M0.55 29.62 C7.39 18.44, 19.52 10.76, 26.13 0.19 M0.55 29.62 C7.01 23.09, 12.92 15.68, 26.13 0.19 M0.94 35.27 C6.8 25.89, 15.31 18.5, 31.78 -0.2 M0.94 35.27 C12.4 22.68, 22.7 10.33, 31.78 -0.2 M0.68 41.67 C9.19 31.6, 19.66 17.86, 36.76 0.16 M0.68 41.67 C13.29 28.01, 23.8 13.55, 36.76 0.16 M0.42 48.06 C13.19 32.16, 28.5 14.1, 42.41 -0.24 M0.42 48.06 C16.38 29.7, 31.43 12.56, 42.41 -0.24 M0.81 53.71 C10.95 40.44, 24.02 30.04, 47.39 0.12 M0.81 53.71 C12.42 40.15, 23.26 28, 47.39 0.12 M0.55 60.1 C18.78 40.51, 37.56 19.07, 53.04 -0.27 M0.55 60.1 C13.92 42.84, 28.9 24.81, 53.04 -0.27 M0.95 65.75 C13.32 52.17, 27 35.9, 58.02 0.09 M0.95 65.75 C23.5 40.42, 46.73 13.06, 58.02 0.09 M0.68 72.15 C21.74 49.71, 39.76 23.73, 63.67 -0.31 M0.68 72.15 C14.04 54.2, 30.59 38.11, 63.67 -0.31 M2.39 76.28 C27.73 48.24, 54.09 16.19, 68.65 0.05 M2.39 76.28 C25.45 47.71, 50.7 21.88, 68.65 0.05 M3.44 81.17 C20.84 61.84, 37.37 42.69, 73.64 0.41 M3.44 81.17 C20.91 61, 39.61 38.85, 73.64 0.41 M6.46 83.79 C20.54 64.69, 38.24 45.11, 79.28 0.02 M6.46 83.79 C26.59 60.78, 47.3 36.9, 79.28 0.02 M9.48 86.42 C37.59 57.11, 65.09 27.2, 84.27 0.38 M9.48 86.42 C32.26 59.63, 55.51 34.08, 84.27 0.38 M13.81 87.53 C38.37 58.05, 63.68 30.53, 89.91 -0.02 M13.81 87.53 C30.1 68.28, 47.38 48.83, 89.91 -0.02 M18.14 88.65 C45.67 56.6, 77.24 20.22, 94.9 0.34 M18.14 88.65 C34.82 69.99, 51.81 51.33, 94.9 0.34 M22.47 89.76 C53.44 52.9, 82.31 19.77, 100.54 -0.05 M22.47 89.76 C41.74 68.19, 61.81 46.01, 100.54 -0.05 M28.11 89.37 C50.6 61.1, 75.28 33.73, 105.53 0.31 M28.11 89.37 C54.84 58.1, 81.68 27.68, 105.53 0.31 M33.1 89.73 C52.05 64.91, 74.61 43.33, 111.17 -0.08 M33.1 89.73 C57.21 59.95, 82.5 30.38, 111.17 -0.08 M38.74 89.33 C70.83 54.86, 100.24 21.96, 116.16 0.28 M38.74 89.33 C67.44 56.83, 95.49 25.32, 116.16 0.28 M43.73 89.69 C65.25 61.95, 88.91 35.07, 121.8 -0.12 M43.73 89.69 C60 70.15, 77.67 50.75, 121.8 -0.12 M49.37 89.3 C76.55 56.02, 104.53 26.91, 126.13 1 M49.37 89.3 C66.84 69.34, 83.28 48.13, 126.13 1 M54.36 89.66 C82.08 59.36, 113.85 23.22, 131.12 1.36 M54.36 89.66 C71.69 69.64, 87.8 48.24, 131.12 1.36 M60 89.26 C75.45 72.65, 92.42 51.59, 135.45 2.47 M60 89.26 C89.91 53.78, 120.1 19.3, 135.45 2.47 M64.99 89.62 C84.55 64.85, 106.95 41.82, 139.78 3.59 M64.99 89.62 C81.03 70.21, 97.65 52.34, 139.78 3.59 M70.64 89.23 C84.58 70.74, 102.4 52.48, 142.8 6.21 M70.64 89.23 C90.75 66.88, 109.67 45.29, 142.8 6.21 M75.62 89.59 C97.08 60.69, 123.47 33.82, 145.16 9.59 M75.62 89.59 C102.16 58.95, 128.48 29.49, 145.16 9.59 M81.27 89.19 C104.47 66.4, 123.45 41.68, 146.87 13.72 M81.27 89.19 C99.31 68.34, 118.82 46.19, 146.87 13.72 M86.25 89.55 C111.83 62.2, 135.87 35.66, 147.92 18.61 M86.25 89.55 C104.62 67.19, 124.76 44.83, 147.92 18.61 M91.9 89.16 C112.14 67.01, 130.18 45.99, 147.66 25.01 M91.9 89.16 C105.25 73.01, 120.01 56.54, 147.66 25.01 M96.88 89.52 C115.77 64.84, 138.25 43.01, 148.05 30.65 M96.88 89.52 C113.12 72.1, 127.93 53.99, 148.05 30.65 M102.53 89.12 C118.4 73.31, 129.3 56.66, 147.79 37.05 M102.53 89.12 C113.49 75.41, 125.16 63.52, 147.79 37.05 M107.51 89.48 C116.02 81.88, 122.77 71.93, 148.19 42.69 M107.51 89.48 C118.2 76.45, 128.47 64.93, 148.19 42.69 M113.16 89.09 C123.01 81.12, 128.19 73.1, 147.93 49.09 M113.16 89.09 C123.94 77.21, 133.99 65.33, 147.93 49.09 M118.14 89.45 C125.67 81.36, 135.08 70.34, 148.32 54.73 M118.14 89.45 C129.87 75.41, 142.16 62.31, 148.32 54.73 M123.13 89.81 C131.33 80.86, 139.21 72.97, 148.06 61.13 M123.13 89.81 C128.39 83.21, 135.37 76.71, 148.06 61.13 M129.43 88.66 C133.72 82.06, 137.44 77.05, 148.45 66.77 M129.43 88.66 C135.8 82.62, 141.34 75.48, 148.45 66.77 M136.38 86.76 C138.44 83.49, 140.92 80.54, 146.22 75.44 M136.38 86.76 C140.04 82.71, 141.92 79.54, 146.22 75.44" stroke="#a5d8ff" stroke-width="0.5" fill="none"></path><path d="M22.25 0 C47.79 -1.3, 70.16 -0.6, 125.75 0 M22.25 0 C43.89 -0.82, 67.53 0.5, 125.75 0 M125.75 0 C142.25 -0.52, 146.84 8.07, 148 22.25 M125.75 0 C139.3 -0.34, 147.79 6.75, 148 22.25 M148 22.25 C146.94 31.91, 147.11 43.76, 148 66.75 M148 22.25 C148.5 37.25, 147.5 53.21, 148 66.75 M148 66.75 C148.35 82.32, 141.43 88.93, 125.75 89 M148 66.75 C146.06 81.91, 138.52 87.22, 125.75 89 M125.75 89 C100.99 88.08, 72.82 89.65, 22.25 89 M125.75 89 C89.68 88.96, 52.12 89.25, 22.25 89 M22.25 89 C9.35 89.06, 1.71 79.74, 0 66.75 M22.25 89 C6.2 90.62, 2.14 79.29, 0 66.75 M0 66.75 C-0.7 56.13, -0.19 41.49, 0 22.25 M0 66.75 C0.82 51.15, -1.01 34.56, 0 22.25 M0 22.25 C0.28 7.43, 9.25 0.38, 22.25 0 M0 22.25 C-2.1 6.46, 9.24 -0.28, 22.25 0" stroke="#000000" stroke-width="1" fill="none"></path></g><g transform="translate(98.92500305175781 389.5) rotate(0 68.07499694824219 25)"><text x="68.07499694824219" y="17.52" font-family="Virgil, Segoe UI Emoji" font-size="20px" fill="#000000" text-anchor="middle" style="white-space: pre;" direction="ltr" dominant-baseline="alphabetic">Update script</text><text x="68.07499694824219" y="42.519999999999996" font-family="Virgil, Segoe UI Emoji" font-size="20px" fill="#000000" text-anchor="middle" style="white-space: pre;" direction="ltr" dominant-baseline="alphabetic">Python</text></g><g stroke-linecap="round" transform="translate(10 212) rotate(0 114.49999999999994 44.5)"><path d="M5.27 5.9 C5.27 5.9, 5.27 5.9, 5.27 5.9 M5.27 5.9 C5.27 5.9, 5.27 5.9, 5.27 5.9 M0.41 17.58 C2.93 11.5, 8.23 8.82, 14.19 1.73 M0.41 17.58 C5.13 13.47, 9.35 7.98, 14.19 1.73 M0.81 23.23 C4.88 17.02, 12.09 12.67, 20.49 0.59 M0.81 23.23 C8.51 16.53, 13.67 8.74, 20.49 0.59 M0.55 29.62 C7.01 22.74, 10.88 15.86, 26.13 0.19 M0.55 29.62 C8.83 19.26, 16.25 11.54, 26.13 0.19 M0.94 35.27 C10.75 23.04, 20.16 13.59, 31.78 -0.2 M0.94 35.27 C10.84 24.22, 21.69 11.87, 31.78 -0.2 M0.68 41.67 C9.77 34.75, 15.25 22.87, 36.76 0.16 M0.68 41.67 C10.11 30.99, 20.31 19.53, 36.76 0.16 M0.42 48.06 C13.68 33.1, 24.56 19.46, 42.41 -0.24 M0.42 48.06 C11.44 35.57, 23.59 23.24, 42.41 -0.24 M0.81 53.71 C19.79 32.48, 33.13 13.76, 47.39 0.12 M0.81 53.71 C11.72 41.81, 21.67 29.85, 47.39 0.12 M0.55 60.1 C20.25 36.36, 40.2 13.48, 53.04 -0.27 M0.55 60.1 C12.32 47.39, 22.87 34.41, 53.04 -0.27 M0.95 65.75 C15.5 48.01, 32.19 33.55, 58.02 0.09 M0.95 65.75 C15.93 48.99, 31.17 30.68, 58.02 0.09 M0.68 72.15 C17.64 54.86, 32.62 37.11, 63.67 -0.31 M0.68 72.15 C24.32 44.07, 49.81 16.6, 63.67 -0.31 M2.39 76.28 C17.52 60.27, 32.52 42.88, 68.65 0.05 M2.39 76.28 C17.38 59.73, 31.31 43.37, 68.65 0.05 M4.1 80.41 C31.07 48.59, 55.63 20.75, 73.64 0.41 M4.1 80.41 C20.16 62.64, 37.03 44.33, 73.64 0.41 M6.46 83.79 C24.73 64.53, 41.44 43.62, 79.28 0.02 M6.46 83.79 C25.97 59.15, 48.23 35.31, 79.28 0.02 M9.48 86.42 C27.48 66.23, 40.17 49.93, 84.27 0.38 M9.48 86.42 C36.97 52.09, 65.66 20.74, 84.27 0.38 M13.15 88.29 C38.39 58.84, 62.76 34.69, 89.91 -0.02 M13.15 88.29 C41.02 56.45, 67.4 24.75, 89.91 -0.02 M18.14 88.65 C48.19 55.58, 75.62 20.82, 94.9 0.34 M18.14 88.65 C42.9 61.18, 66.25 34.27, 94.9 0.34 M22.47 89.76 C42.83 67.48, 61.06 45.26, 100.54 -0.05 M22.47 89.76 C50.94 57.3, 79.05 24.93, 100.54 -0.05 M28.11 89.37 C49.01 66.62, 69.85 45.63, 105.53 0.31 M28.11 89.37 C48.02 67.21, 67.72 43.18, 105.53 0.31 M33.1 89.73 C53.37 65.25, 74.01 40.57, 111.17 -0.08 M33.1 89.73 C59.04 60.23, 84.55 32.5, 111.17 -0.08 M38.74 89.33 C56.15 71.58, 70.86 53.68, 116.16 0.28 M38.74 89.33 C62.18 63.09, 84.01 37.6, 116.16 0.28 M43.73 89.69 C64.69 65.58, 82.19 44.71, 121.8 -0.12 M43.73 89.69 C63.35 67.56, 84.19 45.54, 121.8 -0.12 M49.37 89.3 C78.83 58.09, 105.42 25.01, 126.79 0.24 M49.37 89.3 C68.16 66.74, 88.31 43.27, 126.79 0.24 M54.36 89.66 C72.81 65.35, 93.41 41.43, 132.43 -0.15 M54.36 89.66 C75.99 66.08, 97.58 40.21, 132.43 -0.15 M60 89.26 C75.02 70.91, 92.95 51.75, 137.42 0.21 M60 89.26 C77.97 68.74, 96.08 46.64, 137.42 0.21 M64.99 89.62 C78.99 73.02, 95.63 52.7, 143.06 -0.19 M64.99 89.62 C91.6 58.75, 117.11 28.88, 143.06 -0.19 M70.64 89.23 C90.12 66.91, 108.55 47.16, 148.05 0.17 M70.64 89.23 C93.77 63.55, 116.88 36.55, 148.05 0.17 M75.62 89.59 C105.92 56.27, 132.12 21.41, 153.69 -0.22 M75.62 89.59 C98.24 65.02, 118.62 39.52, 153.69 -0.22 M81.27 89.19 C101.04 64.58, 122.94 40.73, 158.68 0.14 M81.27 89.19 C106.2 59.97, 131.03 29.65, 158.68 0.14 M86.25 89.55 C112.92 58, 138.83 30.24, 164.32 -0.26 M86.25 89.55 C110.17 60.64, 137.26 32.49, 164.32 -0.26 M91.9 89.16 C115.06 63.53, 139.52 35.41, 169.31 0.1 M91.9 89.16 C122.84 55.07, 153.27 19.56, 169.31 0.1 M96.88 89.52 C116.34 67.91, 130.23 48.45, 174.95 -0.29 M96.88 89.52 C117.2 67.12, 134.57 46.94, 174.95 -0.29 M102.53 89.12 C130.73 55.33, 159.56 27.23, 179.94 0.07 M102.53 89.12 C132.22 53.4, 163.49 18.84, 179.94 0.07 M107.51 89.48 C125.83 70.19, 144.62 48.47, 185.58 -0.33 M107.51 89.48 C135.16 56.53, 162.81 24.74, 185.58 -0.33 M113.16 89.09 C140.18 58.49, 164.7 29.29, 190.57 0.03 M113.16 89.09 C130.1 69.82, 146.88 50.89, 190.57 0.03 M118.14 89.45 C144.96 58.38, 169.06 27.96, 195.56 0.39 M118.14 89.45 C145.83 56.23, 173.15 26.29, 195.56 0.39 M123.13 89.81 C136.05 73.86, 151.82 54.08, 201.2 0 M123.13 89.81 C150.68 56.99, 179.43 24.81, 201.2 0 M128.77 89.42 C161.42 54.67, 190.21 19.14, 206.19 0.36 M128.77 89.42 C149.27 64.81, 172.93 38.51, 206.19 0.36 M133.76 89.78 C152.09 71.03, 168.19 53.92, 211.17 0.72 M133.76 89.78 C157.26 62, 181.88 32.86, 211.17 0.72 M139.4 89.38 C170.24 56.28, 199.3 18.26, 215.51 1.83 M139.4 89.38 C161.97 63.09, 184.3 35.08, 215.51 1.83 M144.39 89.74 C163.76 68.49, 182.66 46.44, 219.84 2.95 M144.39 89.74 C160.59 72.56, 175.62 54.91, 219.84 2.95 M150.03 89.35 C168.53 66.91, 185.73 49.24, 222.86 5.57 M150.03 89.35 C178.66 56.46, 208.04 24.15, 222.86 5.57 M155.02 89.71 C176.26 65.19, 203.23 35.17, 225.22 8.95 M155.02 89.71 C176.09 63.15, 200.53 38.23, 225.22 8.95 M160.66 89.31 C187.02 58.29, 210.73 31.66, 226.92 13.09 M160.66 89.31 C175.24 71.9, 191.08 53.57, 226.92 13.09 M165.65 89.67 C185.02 71.15, 201.95 50.51, 228.63 17.22 M165.65 89.67 C178.5 74.31, 191.81 60.2, 228.63 17.22 M171.29 89.28 C188.53 68.08, 210.45 46.15, 229.03 22.86 M171.29 89.28 C187.85 71.21, 205.68 50.28, 229.03 22.86 M176.28 89.64 C187 75.76, 199.95 63.26, 228.76 29.26 M176.28 89.64 C193.91 69.26, 212.26 48.89, 228.76 29.26 M181.92 89.24 C190.39 78.67, 199.45 67.66, 229.16 34.9 M181.92 89.24 C198.19 70.72, 214.77 52.15, 229.16 34.9 M186.91 89.6 C202.7 72.68, 219.83 55.13, 228.9 41.3 M186.91 89.6 C199.24 75.06, 211.03 61.43, 228.9 41.3 M192.55 89.21 C205.32 76.17, 216 61.53, 228.64 47.7 M192.55 89.21 C199.99 79.94, 207.39 70.95, 228.64 47.7 M197.54 89.57 C207.28 76.61, 220.56 62.53, 229.03 53.34 M197.54 89.57 C207.57 76.8, 218.52 65.59, 229.03 53.34 M203.18 89.17 C208.88 80.8, 217.05 72.89, 228.77 59.74 M203.18 89.17 C213 78.94, 221.29 68.16, 228.77 59.74 M208.83 88.78 C214.89 82.5, 222.89 72.17, 229.16 65.38 M208.83 88.78 C214.07 82.01, 220.35 76.16, 229.16 65.38 M215.13 87.63 C218.84 84.26, 223.57 80.24, 228.25 72.54 M215.13 87.63 C220.13 83.03, 223.78 77.72, 228.25 72.54" stroke="#a5d8ff" stroke-width="0.5" fill="none"></path><path d="M22.25 0 C73.52 1.78, 123.53 -1.62, 206.75 0 M22.25 0 C65.77 -1.27, 110 -0.43, 206.75 0 M206.75 0 C221.55 1.3, 227.54 5.82, 229 22.25 M206.75 0 C220.9 -0.84, 227.81 5.48, 229 22.25 M229 22.25 C228.4 37.84, 230.18 51.62, 229 66.75 M229 22.25 C228.02 37.72, 227.88 53.04, 229 66.75 M229 66.75 C227.35 81.3, 222.14 87.96, 206.75 89 M229 66.75 C230.47 82.9, 222 87.3, 206.75 89 M206.75 89 C162.21 88.75, 122.23 88.96, 22.25 89 M206.75 89 C146.75 91.21, 87.49 90.71, 22.25 89 M22.25 89 C7.32 87.74, 1.07 81.23, 0 66.75 M22.25 89 C6.7 88.26, 1.62 83.5, 0 66.75 M0 66.75 C1.06 55.1, 0.82 45.55, 0 22.25 M0 66.75 C-0.24 51.69, -0.08 35.93, 0 22.25 M0 22.25 C-0.39 9.23, 9.03 -1.63, 22.25 0 M0 22.25 C0.24 6.11, 5.17 -1.95, 22.25 0" stroke="#000000" stroke-width="1" fill="none"></path></g><g transform="translate(23.999999999999943 231.5) rotate(0 100.5 25)"><text x="100.5" y="17.52" font-family="Virgil, Segoe UI Emoji" font-size="20px" fill="#000000" text-anchor="middle" style="white-space: pre;" direction="ltr" dominant-baseline="alphabetic">Update triggerer</text><text x="100.5" y="42.519999999999996" font-family="Virgil, Segoe UI Emoji" font-size="20px" fill="#000000" text-anchor="middle" style="white-space: pre;" direction="ltr" dominant-baseline="alphabetic">Python HTTP server</text></g><g stroke-linecap="round"><g transform="translate(143.58479901065022 122) rotate(0 -0.8878871596745626 39)"><path d="M-0.01 0.66 C-0.21 13.66, -0.38 65.42, -0.77 78.32 M-1.48 -0.04 C-1.79 12.56, -0.87 63.13, -1.18 76.36" stroke="#000000" stroke-width="1" fill="none"></path></g><g transform="translate(143.58479901065022 122) rotate(0 -0.8878871596745626 39)"><path d="M-9.72 52.86 C-5.71 62.42, -3.42 67.7, -1.18 76.36 M-9.72 52.86 C-6.27 59.07, -5.42 66.37, -1.18 76.36" stroke="#000000" stroke-width="1" fill="none"></path></g><g transform="translate(143.58479901065022 122) rotate(0 -0.8878871596745626 39)"><path d="M7.39 52.87 C5.67 62.42, 2.23 67.71, -1.18 76.36 M7.39 52.87 C5.67 58.96, 1.35 66.25, -1.18 76.36" stroke="#000000" stroke-width="1" fill="none"></path></g></g><mask></mask><g stroke-linecap="round" transform="translate(100 62) rotate(0 38.5 24.5)"><path d="M3.26 2.83 C3.26 2.83, 3.26 2.83, 3.26 2.83 M3.26 2.83 C3.26 2.83, 3.26 2.83, 3.26 2.83 M0.38 12.25 C3.99 8.5, 5.91 5.49, 10.22 0.93 M0.38 12.25 C2.95 8.99, 6.52 4.43, 10.22 0.93 M0.11 18.65 C3.59 11.08, 10.97 4.92, 16.52 -0.22 M0.11 18.65 C3.21 15.03, 5.98 10.18, 16.52 -0.22 M0.51 24.29 C6.23 15.24, 13.51 10.17, 21.5 0.14 M0.51 24.29 C7.05 15.97, 14.3 8.7, 21.5 0.14 M0.25 30.69 C10.53 18.93, 19.41 6.57, 27.15 -0.25 M0.25 30.69 C6.14 24.03, 12.72 16.44, 27.15 -0.25 M-0.01 37.09 C9.4 26.34, 14.87 18.33, 32.13 0.11 M-0.01 37.09 C10.56 25.64, 21.2 13.26, 32.13 0.11 M1.04 41.98 C13.08 28.45, 26.16 12.24, 37.78 -0.29 M1.04 41.98 C14.61 26.73, 28.63 9.31, 37.78 -0.29 M3.4 45.35 C17.38 28.4, 32.67 11.69, 42.76 0.07 M3.4 45.35 C14.86 30.94, 28.74 17.32, 42.76 0.07 M6.42 47.98 C17.62 31.74, 32.38 19.04, 48.41 -0.32 M6.42 47.98 C17.2 37, 25 24.95, 48.41 -0.32 M10.75 49.09 C21.67 38.02, 31 27.95, 53.39 0.04 M10.75 49.09 C24.78 33.68, 38.17 18.74, 53.39 0.04 M15.74 49.45 C28.16 36.08, 37.01 22.04, 58.38 0.4 M15.74 49.45 C28.59 36.23, 40.95 21.88, 58.38 0.4 M20.72 49.81 C35.59 32.84, 51.08 12.77, 64.02 0 M20.72 49.81 C36.67 30.91, 52.75 11.4, 64.02 0 M26.37 49.42 C41.45 31.1, 59 15, 68.35 1.12 M26.37 49.42 C39.63 33.73, 51.84 18.6, 68.35 1.12 M31.35 49.78 C44.84 31.08, 60.71 16.08, 72.68 2.23 M31.35 49.78 C42.56 38.22, 51.55 26.09, 72.68 2.23 M37 49.39 C46.86 40.27, 53.22 29.56, 75.7 4.86 M37 49.39 C45.51 39.49, 53.81 31.04, 75.7 4.86 M41.98 49.75 C48.99 42.35, 58.66 31.58, 76.75 9.75 M41.98 49.75 C50.81 38.1, 61.18 26.98, 76.75 9.75 M47.63 49.35 C58.5 39.82, 65.21 27.19, 77.15 15.39 M47.63 49.35 C59.01 38.56, 68.86 25.48, 77.15 15.39 M52.61 49.71 C62.07 38.31, 71.48 27.32, 76.89 21.79 M52.61 49.71 C60.92 40.97, 67.61 31.63, 76.89 21.79 M58.26 49.32 C65.06 43.17, 70.2 35.34, 77.28 27.43 M58.26 49.32 C62.4 43.6, 68.08 38.38, 77.28 27.43 M63.24 49.68 C68.33 44.93, 69.21 41.16, 77.02 33.83 M63.24 49.68 C65.84 45.67, 70.24 42.78, 77.02 33.83 M70.2 47.77 C73.14 44.26, 75.21 42.27, 76.1 40.98 M70.2 47.77 C72.32 46.12, 73.77 43.52, 76.1 40.98" stroke="#b2f2bb" stroke-width="0.5" fill="none"></path><path d="M12.25 0 C29.49 -1.57, 45.68 1.41, 64.75 0 M12.25 0 C32.17 -0.38, 53.49 0.83, 64.75 0 M64.75 0 C72.57 -0.41, 76.65 2.69, 77 12.25 M64.75 0 C70.97 0.01, 78.07 5.87, 77 12.25 M77 12.25 C78.57 19.7, 77.93 24.21, 77 36.75 M77 12.25 C77.05 17.55, 76.36 23.48, 77 36.75 M77 36.75 C77.35 43.04, 71.53 48.31, 64.75 49 M77 36.75 C74.79 43.18, 75.17 49.92, 64.75 49 M64.75 49 C43.87 49.44, 24.56 46.62, 12.25 49 M64.75 49 C47.66 48.59, 31.08 49.33, 12.25 49 M12.25 49 C4.25 50.89, -1.2 45.15, 0 36.75 M12.25 49 C2.99 50.6, 1.6 44.38, 0 36.75 M0 36.75 C1.73 32.25, -0.39 26.02, 0 12.25 M0 36.75 C-0.92 30.54, -0.87 24.93, 0 12.25 M0 12.25 C0.99 4.22, 3.23 -1.39, 12.25 0 M0 12.25 C-0.4 2.36, 5.9 -1.54, 12.25 0" stroke="#000000" stroke-width="1" fill="none"></path></g><g transform="translate(114.11666679382324 74) rotate(0 24.383333206176758 12.5)"><text x="24.383333206176758" y="17.52" font-family="Virgil, Segoe UI Emoji" font-size="20px" fill="#000000" text-anchor="middle" style="white-space: pre;" direction="ltr" dominant-baseline="alphabetic">ngrok</text></g><g stroke-linecap="round"><g transform="translate(260.0000000000001 408.27197961798436) rotate(0 36.99999999999994 -0.6484691212766052)"><path d="M0.52 0.7 C12.94 0.29, 62.34 -2.02, 74.63 -2.36 M-0.66 0.02 C11.64 -0.28, 61.63 -1.37, 74.01 -1.38" stroke="#000000" stroke-width="1" fill="none"></path></g><g transform="translate(260.0000000000001 408.27197961798436) rotate(0 36.99999999999994 -0.6484691212766052)"><path d="M50.63 7.47 C59.06 5.67, 63.39 2.27, 74.01 -1.38 M50.63 7.47 C57.71 4.2, 63.89 2, 74.01 -1.38" stroke="#000000" stroke-width="1" fill="none"></path></g><g transform="translate(260.0000000000001 408.27197961798436) rotate(0 36.99999999999994 -0.6484691212766052)"><path d="M50.41 -9.63 C58.92 -6.11, 63.32 -4.19, 74.01 -1.38 M50.41 -9.63 C57.56 -7.84, 63.82 -4.99, 74.01 -1.38" stroke="#000000" stroke-width="1" fill="none"></path></g></g><mask></mask><g stroke-linecap="round"><g transform="translate(148.01537089643966 309) rotate(0 -0.04529398163282394 25)"><path d="M0.99 0.64 C0.61 9.17, -0.75 41.75, -1.13 50.07 M0.05 -0.06 C-0.07 8.77, 0.87 43.55, 1.04 51.64" stroke="#000000" stroke-width="1" fill="none"></path></g><g transform="translate(148.01537089643966 309) rotate(0 -0.04529398163282394 25)"><path d="M-8.06 28.35 C-3.6 35.77, -0.96 44.79, 1.04 51.64 M-8.06 28.35 C-5.18 35.33, -1.66 43.99, 1.04 51.64" stroke="#000000" stroke-width="1" fill="none"></path></g><g transform="translate(148.01537089643966 309) rotate(0 -0.04529398163282394 25)"><path d="M9.03 27.95 C6.73 35.66, 2.6 44.84, 1.04 51.64 M9.03 27.95 C6.05 35.21, 3.71 44.02, 1.04 51.64" stroke="#000000" stroke-width="1" fill="none"></path></g></g><mask></mask><g stroke-linecap="round"><g transform="translate(434.36876579586556 315) rotate(0 -0.10110065281685365 21)"><path d="M-0.29 -0.12 C-0.2 6.8, 0.11 34.92, 0.15 41.94 M0.56 -0.65 C0.65 6.31, 0.05 35.39, -0.1 42.61" stroke="#000000" stroke-width="1" fill="none"></path></g><g transform="translate(434.36876579586556 315) rotate(0 -0.10110065281685365 21)"><path d="M-6.88 22.74 C-5.5 27.84, -3.88 31.9, -0.1 42.61 M-6.88 22.74 C-5.06 28.39, -2.95 34.74, -0.1 42.61" stroke="#000000" stroke-width="1" fill="none"></path></g><g transform="translate(434.36876579586556 315) rotate(0 -0.10110065281685365 21)"><path d="M7.48 23.02 C5.66 28.02, 4.07 32.02, -0.1 42.61 M7.48 23.02 C4.91 28.65, 2.62 34.92, -0.1 42.61" stroke="#000000" stroke-width="1" fill="none"></path></g></g><mask></mask><g stroke-linecap="round"><g transform="translate(432.79848107546275 142) rotate(0 -0.6578822541572436 23.50000000000003)"><path d="M-0.14 0.47 C-0.44 8.31, -1.44 38.76, -1.63 46.57 M0.8 0.24 C0.65 8.17, -0.16 39.35, -0.56 47.05" stroke="#000000" stroke-width="1" fill="none"></path></g><g transform="translate(432.79848107546275 142) rotate(0 -0.6578822541572436 23.50000000000003)"><path d="M-7.79 24.68 C-4.57 31.69, -3.77 39.96, -0.56 47.05 M-7.79 24.68 C-5.12 32.56, -2.91 41.41, -0.56 47.05" stroke="#000000" stroke-width="1" fill="none"></path></g><g transform="translate(432.79848107546275 142) rotate(0 -0.6578822541572436 23.50000000000003)"><path d="M8.28 25.27 C6.06 32.06, 1.43 40.13, -0.56 47.05 M8.28 25.27 C5.12 32.96, 1.49 41.59, -0.56 47.05" stroke="#000000" stroke-width="1" fill="none"></path></g></g><mask></mask><g transform="translate(517 19) rotate(0 16.950000762939453 12.5)"><text x="0" y="17.52" font-family="Virgil, Segoe UI Emoji" font-size="20px" fill="#000000" text-anchor="start" style="white-space: pre;" direction="ltr" dominant-baseline="alphabetic">:80</text></g><g transform="translate(519 227) rotate(0 27.575000762939453 12.5)"><text x="0" y="17.52" font-family="Virgil, Segoe UI Emoji" font-size="20px" fill="#000000" text-anchor="start" style="white-space: pre;" direction="ltr" dominant-baseline="alphabetic">:9099</text></g><g transform="translate(252 228) rotate(0 29.46666717529297 12.5)"><text x="0" y="17.52" font-family="Virgil, Segoe UI Emoji" font-size="20px" fill="#000000" text-anchor="start" style="white-space: pre;" direction="ltr" dominant-baseline="alphabetic">:4000</text></g><g transform="translate(524 392) rotate(0 27.100000381469727 12.5)"><text x="0" y="17.52" font-family="Virgil, Segoe UI Emoji" font-size="20px" fill="#000000" text-anchor="start" style="white-space: pre;" direction="ltr" dominant-baseline="alphabetic">:6379</text></g></svg>